<?xml version="1.0" encoding="UTF-8" standalone="no"?><!DOCTYPE svg PUBLIC "-//W3C//DTD SVG 1.1//EN" "http://www.w3.org/Graphics/SVG/1.1/DTD/svg11.dtd"><svg width="100%" height="100%" viewBox="0 0 120 260" version="1.1" xmlns="http://www.w3.org/2000/svg" xmlns:xlink="http://www.w3.org/1999/xlink" xml:space="preserve" xmlns:serif="http://www.serif.com/" style="fill-rule:evenodd;clip-rule:evenodd;stroke-linecap:round;stroke-linejoin:round;"><g id="F_Muscle"><g id="Nogi"><g id="Łydki"><path d="M38.563,185.248c0.365,-1.074 0.71,-2.239 1.06,-3.493c1.773,-6.354 1.847,-16.697 0.074,-19.948l-2.734,7.24c0,0 -0.887,2.364 -3.546,7.388c-2.109,3.984 -2.269,12.155 -2.111,15.36c0.295,5.948 -0.697,18.921 -0.106,21.137c0.591,2.216 -0.148,9.161 0.591,8.866c0.739,-0.296 5.615,-5.467 5.689,-7.684c0.074,-2.216 2.364,-12.781 4.581,-17.51c1.641,-3.5 -1.333,-9.062 -3.498,-11.357l0,0Z" style="fill-rule:nonzero;stroke:#fff;stroke-width:0.34px;"/><path d="M81.437,185.248c-0.365,-1.074 -0.71,-2.239 -1.06,-3.493c-1.773,-6.354 -1.847,-16.697 -0.074,-19.948l2.734,7.24c0,0 0.887,2.364 3.546,7.388c2.109,3.984 2.269,12.155 2.111,15.36c-0.294,5.948 0.697,18.921 0.106,21.137c-0.591,2.216 0.148,9.161 -0.591,8.866c-0.739,-0.296 -5.615,-5.467 -5.689,-7.684c-0.074,-2.216 -2.364,-12.781 -4.581,-17.51c-1.641,-3.5 1.333,-9.062 3.498,-11.357l-0,0Z" style="fill-rule:nonzero;stroke:#fff;stroke-width:0.34px;"/><path d="M45.386,165.279c-0.96,1.33 -4.359,9.309 -6.206,15.22c-1.847,5.911 -1.638,28.265 0.568,21.825c1.632,-4.765 5.49,-9.339 5.712,-16.432c0.222,-7.093 0.295,-10.639 1.33,-11.821c1.034,-1.182 -1.404,-8.792 -1.404,-8.792l-0,-0Z" style="fill-rule:nonzero;stroke:#fff;stroke-width:0.34px;"/><path d="M74.614,165.279c0.96,1.33 4.359,9.309 6.206,15.22c1.847,5.91 1.638,28.265 -0.568,21.825c-1.632,-4.765 -5.49,-9.339 -5.712,-16.432c-0.222,-7.093 -0.296,-10.639 -1.33,-11.821c-1.034,-1.182 1.404,-8.792 1.404,-8.792l0,0Z" style="fill-rule:nonzero;stroke:#fff;stroke-width:0.34px;"/></g></g></g></svg>