<?xml version="1.0" encoding="UTF-8" standalone="no"?><!DOCTYPE svg PUBLIC "-//W3C//DTD SVG 1.1//EN" "http://www.w3.org/Graphics/SVG/1.1/DTD/svg11.dtd"><svg width="100%" height="100%" viewBox="0 0 120 260" version="1.1" xmlns="http://www.w3.org/2000/svg" xmlns:xlink="http://www.w3.org/1999/xlink" xml:space="preserve" xmlns:serif="http://www.serif.com/" style="fill-rule:evenodd;clip-rule:evenodd;stroke-linecap:round;stroke-linejoin:round;"><g id="F_Muscle"><g id="Nogi"><g id="Pośladkowy-średni" serif:id="Pośladkowy średni"><path d="M43.774,107.055c-2.122,2.007 0.538,8.213 -1.048,10.22c-2.111,2.671 -5.107,21.77 -5.107,21.77c0,0 -0.767,-14.234 1.283,-20.329c2.05,-6.095 3.011,-14.019 3.011,-14.019c0,0 2.341,1.527 1.861,2.358l0,0Z" style="fill-rule:nonzero;stroke:#fff;stroke-width:0.34px;"/><path d="M76.225,107.055c2.122,2.007 -0.538,8.213 1.048,10.22c2.111,2.671 5.107,21.77 5.107,21.77c0,0 0.767,-14.234 -1.283,-20.329c-2.05,-6.095 -3.011,-14.019 -3.011,-14.019c0,0 -2.341,1.527 -1.861,2.358l0,0Z" style="fill-rule:nonzero;stroke:#fff;stroke-width:0.34px;"/></g></g></g></svg>