<?xml version="1.0" encoding="UTF-8" standalone="no"?><!DOCTYPE svg PUBLIC "-//W3C//DTD SVG 1.1//EN" "http://www.w3.org/Graphics/SVG/1.1/DTD/svg11.dtd"><svg width="100%" height="100%" viewBox="0 0 120 260" version="1.1" xmlns="http://www.w3.org/2000/svg" xmlns:xlink="http://www.w3.org/1999/xlink" xml:space="preserve" xmlns:serif="http://www.serif.com/" style="fill-rule:evenodd;clip-rule:evenodd;stroke-linecap:round;stroke-linejoin:round;"><g id="F_Muscle"><g id="Nogi"><g id="Czworogłowy"><path d="M45.784,135.461c-3.768,28.223 3.444,27.01 4.7,24.794c1.256,-2.216 2.216,-7.61 3.472,-10.122c1.256,-2.512 7.709,-23.168 0.912,-29.301c-2.681,-2.419 -9.097,-16.578 -9.886,-14.555c-1.21,3.105 0.801,29.183 0.801,29.183l0,0Z" style="fill-rule:nonzero;stroke:#fff;stroke-width:0.34px;"/><path d="M74.216,135.461c3.768,28.223 -3.444,27.01 -4.7,24.794c-1.256,-2.216 -2.216,-7.61 -3.472,-10.122c-1.256,-2.512 -7.709,-23.168 -0.912,-29.301c2.681,-2.419 9.097,-16.578 9.886,-14.555c1.21,3.105 -0.801,29.183 -0.801,29.183l-0,0Z" style="fill-rule:nonzero;stroke:#fff;stroke-width:0.34px;"/><path d="M78.38,119.172c2.929,5.794 5.562,26.362 3.884,36.293c-0.1,0.59 -0.433,9.235 0.74,13.388c-11.597,-10.488 -4.623,-49.681 -4.623,-49.681Z" style="fill-rule:nonzero;stroke:#fff;stroke-width:0.34px;"/><path d="M41.62,119.172c-2.929,5.794 -5.562,26.362 -3.884,36.293c0.1,0.59 0.433,9.235 -0.74,13.388c11.597,-10.488 4.623,-49.681 4.623,-49.681Z" style="fill-rule:nonzero;stroke:#fff;stroke-width:0.34px;"/><path d="M41.716,154.67c0.376,-2.734 -0.363,-12.19 -1.619,-18.249c-1.256,-6.058 1.034,-22.386 4.285,-24.381c3.251,-1.995 3.768,16.032 5.467,20.391c1.699,4.359 -3.029,21.352 -3.472,22.682c-0.443,1.33 -5.037,2.29 -4.661,-0.443l-0,-0Z" style="fill-rule:nonzero;stroke:#fff;stroke-width:0.34px;"/><path d="M78.283,154.67c-0.376,-2.734 0.363,-12.19 1.619,-18.249c1.256,-6.058 -1.034,-22.386 -4.285,-24.381c-3.251,-1.995 -3.768,16.032 -5.467,20.391c-1.699,4.359 3.029,21.352 3.472,22.681c0.443,1.33 5.037,2.29 4.661,-0.443l0,0Z" style="fill-rule:nonzero;stroke:#fff;stroke-width:0.34px;"/></g></g></g></svg>