<?xml version="1.0" encoding="UTF-8" standalone="no"?><!DOCTYPE svg PUBLIC "-//W3C//DTD SVG 1.1//EN" "http://www.w3.org/Graphics/SVG/1.1/DTD/svg11.dtd"><svg width="100%" height="100%" viewBox="0 0 120 260" version="1.1" xmlns="http://www.w3.org/2000/svg" xmlns:xlink="http://www.w3.org/1999/xlink" xml:space="preserve" xmlns:serif="http://www.serif.com/" style="fill-rule:evenodd;clip-rule:evenodd;stroke-linecap:round;stroke-linejoin:round;"><g id="F_Muscle"><g id="Nogi"><g id="Krawiecki"><path d="M43.196,106.048c-1.551,6.354 1.556,18.7 4.511,23.355c4.45,7.009 3.251,10.787 3.842,13.668c0.591,2.881 0.657,12.283 0.657,12.283l1.216,-3.952c0,0 2.305,-10.997 -1.651,-20.891c-3.956,-9.894 -6.541,-21.195 -6.394,-22.303c-0.395,-0.471 -2.181,-2.16 -2.181,-2.16l0,0Z" style="fill-rule:nonzero;stroke:#fff;stroke-width:0.34px;"/><path d="M76.803,106.048c1.551,6.354 -1.556,18.7 -4.511,23.355c-4.45,7.009 -3.251,10.787 -3.842,13.668c-0.591,2.881 -0.657,12.283 -0.657,12.283l-1.216,-3.952c0,0 -2.305,-10.997 1.651,-20.891c3.956,-9.894 6.541,-21.195 6.394,-22.303c0.395,-0.471 2.181,-2.16 2.181,-2.16l-0,0Z" style="fill-rule:nonzero;stroke:#fff;stroke-width:0.34px;"/></g></g></g></svg>