<?xml version="1.0" encoding="UTF-8" standalone="no"?><!DOCTYPE svg PUBLIC "-//W3C//DTD SVG 1.1//EN" "http://www.w3.org/Graphics/SVG/1.1/DTD/svg11.dtd"><svg width="100%" height="100%" viewBox="0 0 120 260" version="1.1" xmlns="http://www.w3.org/2000/svg" xmlns:xlink="http://www.w3.org/1999/xlink" xml:space="preserve" xmlns:serif="http://www.serif.com/" style="fill-rule:evenodd;clip-rule:evenodd;stroke-linecap:round;stroke-linejoin:round;"><g id="F_Muscle"><g id="Nogi"><g id="Przywodziciel"><path d="M51.546,114.553c0.345,3.99 3.327,12.412 3.919,17.436c0.591,5.024 -0.279,14.722 -0.279,14.722c0,0 3.819,-7.333 4.162,-14.644c0.089,-1.899 -0.089,-5.672 -0.456,-7.096c-2.544,-3.583 -4.828,-5.503 -7.346,-10.417l-0,0Z" style="fill-rule:nonzero;stroke:#fff;stroke-width:0.34px;"/><path d="M68.453,114.553c-0.345,3.99 -3.327,12.412 -3.919,17.436c-0.591,5.024 0.279,14.722 0.279,14.722c0,0 -3.819,-7.333 -4.162,-14.644c-0.089,-1.899 0.089,-5.672 0.456,-7.096c2.543,-3.583 4.828,-5.503 7.346,-10.417l0,0Z" style="fill-rule:nonzero;stroke:#fff;stroke-width:0.34px;"/></g></g></g></svg>