<?xml version="1.0" encoding="UTF-8" standalone="no"?><!DOCTYPE svg PUBLIC "-//W3C//DTD SVG 1.1//EN" "http://www.w3.org/Graphics/SVG/1.1/DTD/svg11.dtd"><svg width="100%" height="100%" viewBox="0 0 120 260" version="1.1" xmlns="http://www.w3.org/2000/svg" xmlns:xlink="http://www.w3.org/1999/xlink" xml:space="preserve" xmlns:serif="http://www.serif.com/" style="fill-rule:evenodd;clip-rule:evenodd;stroke-linecap:round;stroke-linejoin:round;"><g id="F_Muscle"><g id="Klatka"><g id="Zębaty"><path d="M41.951,89.986c0.955,2.208 2.77,2.889 4.618,4.884c1.847,1.995 2.535,5.981 3.348,6.794c0.813,0.813 10.059,-20.531 9.433,-22.53c-0.625,-1.999 -6.502,-13.372 -7.019,-12.855c-0.517,0.517 -11.687,-3.903 -13.933,-5.954c0,0 2.37,26.929 3.552,29.662Z" style="fill-rule:nonzero;stroke:#fff;stroke-width:0.34px;"/><path d="M78.049,89.986c-0.955,2.208 -2.77,2.889 -4.618,4.884c-1.847,1.995 -2.535,5.981 -3.348,6.794c-0.813,0.813 -10.059,-20.531 -9.433,-22.53c0.625,-1.999 6.502,-13.372 7.019,-12.855c0.517,0.517 11.687,-3.903 13.933,-5.954c0,0 -2.37,26.929 -3.552,29.662Z" style="fill-rule:nonzero;stroke:#fff;stroke-width:0.34px;"/></g></g></g></svg>