<?xml version="1.0" encoding="UTF-8" standalone="no"?><!DOCTYPE svg PUBLIC "-//W3C//DTD SVG 1.1//EN" "http://www.w3.org/Graphics/SVG/1.1/DTD/svg11.dtd"><svg width="100%" height="100%" viewBox="0 0 120 260" version="1.1" xmlns="http://www.w3.org/2000/svg" xmlns:xlink="http://www.w3.org/1999/xlink" xml:space="preserve" xmlns:serif="http://www.serif.com/" style="fill-rule:evenodd;clip-rule:evenodd;stroke-linecap:round;stroke-linejoin:round;"><g id="F_Muscle"><g id="Klatka"><g id="Przedramiona"><path d="M25.281,81.267c-3.029,2.143 -7.379,8.727 -7.6,14.047c-0.222,5.319 -4.728,17.14 -5.393,18.249c-0.665,1.108 2.438,4.063 2.143,2.734c-0.295,-1.33 3.564,-5.745 4.673,-7.961c1.108,-2.216 6.734,-12.56 7.561,-14.838c2.253,-6.206 -1.382,-12.23 -1.382,-12.23l0,-0Z" style="fill-rule:nonzero;stroke:#fff;stroke-width:0.34px;"/><path d="M94.719,81.267c3.029,2.143 7.379,8.727 7.6,14.047c0.222,5.319 4.728,17.14 5.393,18.249c0.665,1.108 -2.438,4.063 -2.143,2.734c0.296,-1.33 -3.564,-5.745 -4.673,-7.961c-1.108,-2.216 -6.734,-12.56 -7.561,-14.838c-2.253,-6.206 1.382,-12.23 1.382,-12.23l0,-0Z" style="fill-rule:nonzero;stroke:#fff;stroke-width:0.34px;"/><path d="M18.124,117.035c-0.222,-2.29 2.547,-6.945 5.448,-10.491c2.901,-3.546 8.854,-11.865 9.814,-14.598c0.96,-2.734 0.185,-6.317 0.185,-6.317c0,0 -7.033,3.719 -8.571,6.243c-2.116,3.472 -9.092,20.73 -9.314,21.765c-0.222,1.034 -0.517,4.063 -0.296,4.063c0.221,0 2.734,-0.665 2.734,-0.665l0,0Z" style="fill-rule:nonzero;stroke:#fff;stroke-width:0.34px;"/><path d="M101.876,117.035c0.222,-2.29 -2.547,-6.945 -5.448,-10.491c-2.901,-3.546 -8.854,-11.865 -9.814,-14.598c-0.96,-2.734 -0.185,-6.317 -0.185,-6.317c0,0 7.033,3.719 8.571,6.243c2.116,3.472 9.092,20.73 9.314,21.765c0.222,1.034 0.517,4.063 0.295,4.063c-0.222,0 -2.734,-0.665 -2.734,-0.665Z" style="fill-rule:nonzero;stroke:#fff;stroke-width:0.34px;"/></g></g></g></svg>