<?xml version="1.0" encoding="UTF-8" standalone="no"?><!DOCTYPE svg PUBLIC "-//W3C//DTD SVG 1.1//EN" "http://www.w3.org/Graphics/SVG/1.1/DTD/svg11.dtd"><svg width="100%" height="100%" viewBox="0 0 120 260" version="1.1" xmlns="http://www.w3.org/2000/svg" xmlns:xlink="http://www.w3.org/1999/xlink" xml:space="preserve" xmlns:serif="http://www.serif.com/" style="fill-rule:evenodd;clip-rule:evenodd;stroke-linecap:round;stroke-linejoin:round;"><g id="F_Muscle"><g id="Klatka"><g id="Naramienny"><path d="M42.726,48.621c0,0 -8.755,0.443 -11.415,5.319c-2.66,4.876 -2.216,14.739 -2.216,14.739c0,0 6.255,-1.558 10.588,-7.08c2.296,-2.927 1.707,-3.325 2.594,-4.286c0.887,-0.96 4.211,-4.599 7.133,-4.267c2.978,0.339 -0.483,-3.491 -0.483,-3.491l-6.2,-0.935l-0,0Z" style="fill-rule:nonzero;stroke:#fff;stroke-width:0.34px;"/><path d="M77.273,48.621c0,0 8.755,0.443 11.415,5.319c2.66,4.876 2.216,14.739 2.216,14.739c0,0 -6.255,-1.558 -10.588,-7.08c-2.296,-2.927 -1.707,-3.325 -2.594,-4.286c-0.887,-0.96 -4.211,-4.599 -7.132,-4.267c-2.978,0.339 0.483,-3.491 0.483,-3.491l6.2,-0.935Z" style="fill-rule:nonzero;stroke:#fff;stroke-width:0.34px;"/></g></g></g></svg>