<?xml version="1.0" encoding="UTF-8" standalone="no"?><!DOCTYPE svg PUBLIC "-//W3C//DTD SVG 1.1//EN" "http://www.w3.org/Graphics/SVG/1.1/DTD/svg11.dtd"><svg width="100%" height="100%" viewBox="0 0 120 260" version="1.1" xmlns="http://www.w3.org/2000/svg" xmlns:xlink="http://www.w3.org/1999/xlink" xml:space="preserve" xmlns:serif="http://www.serif.com/" style="fill-rule:evenodd;clip-rule:evenodd;stroke-linecap:round;stroke-linejoin:round;"><g id="F_Muscle"><g id="Klatka"><g id="Biceps"><path d="M41.393,58.978c-4.066,4.929 -11.189,7.208 -12.298,9.701c-1.108,2.493 -3.879,12.246 -4.045,13.742c-0.166,1.496 -0.055,6.538 2.438,7.314c2.493,0.776 4.821,-0.776 5.209,-1.829c0.388,-1.053 5.652,-12.357 6.04,-13.908c0.388,-1.551 3.78,-16.384 2.656,-15.021l0,0Z" style="fill-rule:nonzero;stroke:#fff;stroke-width:0.34px;"/><path d="M78.607,58.978c4.066,4.929 11.189,7.208 12.298,9.701c1.108,2.494 3.879,12.246 4.045,13.742c0.166,1.496 0.055,6.538 -2.438,7.314c-2.493,0.776 -4.821,-0.776 -5.209,-1.829c-0.388,-1.053 -5.652,-12.357 -6.04,-13.908c-0.388,-1.551 -3.78,-16.384 -2.656,-15.021l-0,0Z" style="fill-rule:nonzero;stroke:#fff;stroke-width:0.34px;"/></g></g></g></svg>