<?xml version="1.0" encoding="UTF-8" standalone="no"?><!DOCTYPE svg PUBLIC "-//W3C//DTD SVG 1.1//EN" "http://www.w3.org/Graphics/SVG/1.1/DTD/svg11.dtd"><svg width="100%" height="100%" viewBox="0 0 120 260" version="1.1" xmlns="http://www.w3.org/2000/svg" xmlns:xlink="http://www.w3.org/1999/xlink" xml:space="preserve" xmlns:serif="http://www.serif.com/" style="fill-rule:evenodd;clip-rule:evenodd;stroke-linecap:round;stroke-linejoin:round;"><g id="F_Muscle"><g id="Klatka"><g id="Górny-brzucha" serif:id="Górny brzucha"><clipPath id="_clip1"><rect x="50.132" y="70.834" width="9.993" height="18.76"/></clipPath><g clip-path="url(#_clip1)"><path d="M50.619,72.108c-0.473,0.997 -0.561,9.863 -0.434,18.673c0.127,8.81 -0.649,18.008 1.512,21.499c2.161,3.491 2.604,7.203 4.599,8.7c1.995,1.496 3.829,0.222 3.829,0.222l0,-50.368l-9.507,1.274Z" style="fill-rule:nonzero;stroke:#fff;stroke-width:0.34px;"/></g><clipPath id="_clip2"><rect x="59.874" y="70.834" width="9.993" height="18.76"/></clipPath><g clip-path="url(#_clip2)"><path d="M69.381,72.108c0.473,0.997 0.561,9.863 0.434,18.673c-0.127,8.81 0.649,18.008 -1.512,21.499c-2.161,3.491 -2.604,7.203 -4.599,8.7c-1.995,1.496 -3.829,0.222 -3.829,0.222l0,-50.368l9.507,1.274Z" style="fill-rule:nonzero;stroke:#fff;stroke-width:0.34px;"/></g></g></g></g></svg>