<?xml version="1.0" encoding="UTF-8" standalone="no"?><!DOCTYPE svg PUBLIC "-//W3C//DTD SVG 1.1//EN" "http://www.w3.org/Graphics/SVG/1.1/DTD/svg11.dtd"><svg width="100%" height="100%" viewBox="0 0 120 260" version="1.1" xmlns="http://www.w3.org/2000/svg" xmlns:xlink="http://www.w3.org/1999/xlink" xml:space="preserve" xmlns:serif="http://www.serif.com/" style="fill-rule:evenodd;clip-rule:evenodd;stroke-linecap:round;stroke-linejoin:round;"><g id="F_Muscle"><g id="Klatka"><g id="Piersiowy"><path d="M60.125,72.145c-6.877,1.108 -9.684,1.625 -12.861,0.369c-3.177,-1.256 -6.428,-8.57 -6.428,-10.196c0,-1.625 -4.293,0.879 -4.293,0.879c0,0 3.978,-5.681 4.2,-6.642c0.222,-0.96 3.307,-4.359 11.23,-4.359c1.124,0 8.027,0.074 8.027,0.074l0.126,19.874Z" style="fill-rule:nonzero;stroke:#fff;stroke-width:0.34px;"/><path d="M59.874,72.145c6.877,1.108 9.684,1.625 12.861,0.369c3.177,-1.256 6.428,-8.57 6.428,-10.196c0,-1.625 4.293,0.879 4.293,0.879c0,0 -3.978,-5.681 -4.2,-6.642c-0.222,-0.96 -3.307,-4.359 -11.23,-4.359c-1.124,0 -8.027,0.074 -8.027,0.074l-0.126,19.874Z" style="fill-rule:nonzero;stroke:#fff;stroke-width:0.34px;"/></g></g></g></svg>