<?xml version="1.0" encoding="UTF-8" standalone="no"?><!DOCTYPE svg PUBLIC "-//W3C//DTD SVG 1.1//EN" "http://www.w3.org/Graphics/SVG/1.1/DTD/svg11.dtd"><svg width="100%" height="100%" viewBox="0 0 120 260" version="1.1" xmlns="http://www.w3.org/2000/svg" xmlns:xlink="http://www.w3.org/1999/xlink" xml:space="preserve" xmlns:serif="http://www.serif.com/" style="fill-rule:evenodd;clip-rule:evenodd;stroke-linecap:round;stroke-linejoin:round;"><g id="F_Muscle"><g id="Góra"><g id="MOS"><path d="M53.144,37.144c-0.228,4.377 -0.061,9.364 2.543,12.8c2.604,3.435 2.771,6.583 3.158,5.813c0.388,-0.771 1.718,-14.679 0.887,-17.006c-0.831,-2.327 -2.715,-2.438 -2.715,-0.166c0,2.272 -0.111,8.589 -0.111,8.589c0,0 -0.72,-6.594 -1.662,-8.866c-0.942,-2.272 -2.1,-1.164 -2.1,-1.164l-0,0Z" style="fill-rule:nonzero;stroke:#fff;stroke-width:0.34px;"/><path d="M66.856,37.144c0.228,4.377 0.061,9.364 -2.543,12.8c-2.604,3.435 -2.771,6.583 -3.158,5.813c-0.388,-0.77 -1.718,-14.679 -0.887,-17.006c0.831,-2.327 2.715,-2.438 2.715,-0.166c0,2.272 0.111,8.589 0.111,8.589c0,0 0.72,-6.594 1.662,-8.866c0.942,-2.272 2.1,-1.164 2.1,-1.164l0,0Z" style="fill-rule:nonzero;stroke:#fff;stroke-width:0.34px;"/></g></g></g></svg>