<?xml version="1.0" encoding="UTF-8" standalone="no"?><!DOCTYPE svg PUBLIC "-//W3C//DTD SVG 1.1//EN" "http://www.w3.org/Graphics/SVG/1.1/DTD/svg11.dtd"><svg width="100%" height="100%" viewBox="0 0 120 260" version="1.1" xmlns="http://www.w3.org/2000/svg" xmlns:xlink="http://www.w3.org/1999/xlink" xml:space="preserve" xmlns:serif="http://www.serif.com/" style="fill-rule:evenodd;clip-rule:evenodd;stroke-linecap:round;stroke-linejoin:round;"><g id="F_Bones"><path d="M12.498,113.24c-1.031,1.532 -1.134,2.83 -1.65,3.33c-0.516,0.499 -1.639,1.179 -2.337,2.164c-0.41,0.578 -2.287,3.278 -3.016,4.77c-0.325,0.666 0.748,1.374 0.954,1.274c0.618,-0.299 1.581,-0.816 1.581,-0.816c0,0 -1.56,4.365 -1.607,5.886c-0.009,0.283 0.804,0.459 0.851,0.375c0.773,-1.399 2.177,-4.495 2.177,-4.495c0,0 -1.094,5.195 -1.262,7.805c-0.011,0.172 0.743,0.425 0.803,0.287c1.014,-2.323 2.956,-7.326 2.956,-7.326c0,0 -0.034,5.727 -0.215,7.9c-0.016,0.196 1.104,0.297 1.134,0.165c0.593,-2.637 1.349,-7.932 1.349,-7.932c0,0 0.516,5.511 1.288,6.443c0.078,0.094 0.785,-0.063 0.817,-0.166c0.403,-1.273 0.483,-5.324 0.601,-6.21c0.387,-2.884 1.968,-5.661 1.005,-10.323c-0.962,-4.662 -5.431,-3.13 -5.431,-3.13l0,-0.001Z" style="fill:#fafef6;fill-rule:nonzero;stroke:#000;stroke-width:0.34px;"/><path d="M52.811,33.604c0,0 -1.773,-1.57 -1.995,-5.56c-0.222,-3.99 2.327,1.958 2.327,1.958l-0.333,3.602Z" style="fill:#fafef6;fill-rule:nonzero;stroke:#000;stroke-width:0.34px;"/><path d="M67.44,33.604c0,0 1.773,-1.57 1.995,-5.56c0.222,-3.99 -2.327,1.958 -2.327,1.958l0.332,3.602l0,0Z" style="fill:#fafef6;fill-rule:nonzero;stroke:#000;stroke-width:0.34px;"/><path d="M41.81,152.084c-0.161,4.138 -1.934,9.826 -2.747,11.008c-0.813,1.182 -1.773,8.644 -1.478,12.781c0.296,4.137 -1.336,31.695 -1.444,33.247c-0.108,1.551 1.956,-0.631 2.624,-1.978c0.667,-1.347 1.111,-14.793 1.849,-20.186c0.739,-5.393 5.255,-10.868 5.619,-11.746c0.365,-0.877 5.253,-9.075 4.25,-14.956c0,0 -1.336,1.249 -2.592,-0.007c-1.256,-1.256 -0.694,-8.061 -0.694,-8.061c0,0 -4.58,1.577 -5.388,-0.103" style="fill:#fafef6;fill-rule:nonzero;stroke:#000;stroke-width:0.34px;"/><path d="M39.064,205.703c0.768,2.66 -0.905,7.001 -1.496,8.922c-0.591,1.921 1.446,7.536 -1.238,11.932c-0.775,1.269 -10.639,1.404 -10.787,-1.625c-0.148,-3.029 4.802,-7.093 4.802,-8.57c0,-1.478 -1.108,-5.136 -0.369,-6.705c0.739,-1.57 1.182,-2.752 1.182,-2.752c2.069,2.364 7.906,-1.201 7.906,-1.201l0,0Z" style="fill:#fafef6;fill-rule:nonzero;stroke:#000;stroke-width:0.34px;"/><path d="M107.502,113.24c1.031,1.532 1.134,2.83 1.65,3.33c0.515,0.5 1.639,1.179 2.337,2.164c0.41,0.578 2.287,3.278 3.016,4.77c0.325,0.666 -0.748,1.374 -0.954,1.274c-0.618,-0.299 -1.581,-0.816 -1.581,-0.816c0,0 1.56,4.365 1.607,5.886c0.009,0.283 -0.804,0.459 -0.851,0.375c-0.773,-1.399 -2.177,-4.495 -2.177,-4.495c0,0 1.094,5.195 1.262,7.805c0.011,0.172 -0.743,0.425 -0.803,0.287c-1.014,-2.323 -2.956,-7.326 -2.956,-7.326c0,0 0.034,5.727 0.215,7.9c0.016,0.196 -1.104,0.297 -1.134,0.165c-0.593,-2.637 -1.349,-7.932 -1.349,-7.932c0,0 -0.516,5.511 -1.288,6.443c-0.078,0.094 -0.785,-0.063 -0.817,-0.166c-0.403,-1.273 -0.483,-5.324 -0.602,-6.21c-0.387,-2.884 -1.968,-5.661 -1.005,-10.323c0.962,-4.662 5.431,-3.13 5.431,-3.13l0,-0.001Z" style="fill:#fafef6;fill-rule:nonzero;stroke:#000;stroke-width:0.34px;"/><path d="M78.189,152.084c0.161,4.138 1.934,9.826 2.747,11.008c0.813,1.182 1.773,8.644 1.478,12.781c-0.296,4.137 1.336,31.695 1.444,33.246c0.108,1.552 -1.956,-0.631 -2.624,-1.978c-0.667,-1.347 -1.111,-14.793 -1.849,-20.186c-0.739,-5.393 -5.255,-10.868 -5.619,-11.746c-0.365,-0.877 -5.253,-9.075 -4.25,-14.956c0,0 1.336,1.249 2.592,-0.007c1.256,-1.256 0.694,-8.061 0.694,-8.061c0,0 4.58,1.577 5.388,-0.103" style="fill:#fafef6;fill-rule:nonzero;stroke:#000;stroke-width:0.34px;"/><path d="M80.936,205.703c-0.768,2.66 0.905,7.001 1.496,8.922c0.591,1.921 -1.446,7.536 1.237,11.932c0.775,1.269 10.639,1.404 10.787,-1.625c0.148,-3.029 -4.802,-7.093 -4.802,-8.57c0,-1.478 1.108,-5.136 0.369,-6.705c-0.739,-1.569 -1.182,-2.752 -1.182,-2.752c-2.069,2.364 -7.906,-1.201 -7.906,-1.201l0,0Z" style="fill:#fafef6;fill-rule:nonzero;stroke:#000;stroke-width:0.34px;"/><path d="M78.217,103.914c0,0 -4.096,4.654 -6.423,5.818c-2.327,1.164 -2.346,-4.1 -1.865,-6.151c0.48,-2.05 2.726,-6.131 2.726,-6.131c0,0 -1.581,0.257 -2.025,-1.737c-0.443,-1.995 3.161,-6.169 3.161,-6.169c0,0 -3.186,1.071 -3.186,-1.146c0,-2.216 2.471,-4.054 2.471,-4.054c0,0 -2.944,1.782 -2.723,-0.823c0.222,-2.604 2.272,-3.768 2.272,-3.768c0,0 -2.502,0.388 -2.11,-1.385c0.392,-1.773 2.11,-3.713 2.11,-3.713c0,0 -1.992,-0.305 -1.438,-1.635c-0.369,0.252 -2.022,0.224 -2.022,0.224c1.441,4.267 0.468,9.445 -0.363,9.667c-0.831,0.222 -7.37,-3.38 -7.758,-4.211c-0.388,-0.831 -0.443,-1.662 0.222,-7.093c0.665,-5.43 -1.053,-8.367 -0.443,-10.196c0.61,-1.829 1.219,-6.853 7.868,-7.776c6.649,-0.923 9.526,-4.93 9.526,-4.93l-1.433,-0.322c0,0 -0.89,3.276 -7.373,3.719c-6.483,0.443 -9.411,0.166 -9.411,0.166c0,0 -2.928,0.277 -9.411,-0.166c-6.483,-0.443 -7.373,-3.719 -7.373,-3.719l-1.433,0.322c0,0 2.877,4.007 9.526,4.93c6.649,0.923 7.259,5.948 7.868,7.776c0.61,1.829 -1.108,4.765 -0.443,10.196c0.665,5.43 0.61,6.261 0.222,7.093c-0.388,0.831 -6.926,4.433 -7.758,4.211c-0.831,-0.222 -1.804,-5.4 -0.363,-9.667c0,0 -1.653,0.028 -2.022,-0.224c0.554,1.33 -1.438,1.635 -1.438,1.635c0,0 1.718,1.939 2.11,3.713c0.392,1.773 -2.11,1.385 -2.11,1.385c0,0 2.05,1.164 2.272,3.768c0.222,2.604 -2.723,0.823 -2.723,0.823c0,0 2.471,1.837 2.471,4.054c0,2.217 -3.186,1.146 -3.186,1.146c0,0 3.605,4.174 3.161,6.169c-0.443,1.995 -2.025,1.737 -2.025,1.737c0,0 2.246,4.081 2.726,6.131c0.48,2.05 0.462,7.314 -1.865,6.151c-2.327,-1.164 -6.423,-5.818 -6.423,-5.818c0,0 -0.226,0.554 0.081,1.168c0.28,0.56 12.105,11.355 13.047,16.287c0.806,4.221 4.045,4.949 4.964,5.072l0,0.026c0,0 0.051,-0.003 0.125,-0.011c0.074,0.007 0.125,0.011 0.125,0.011l0,-0.026c0.919,-0.123 4.157,-0.85 4.964,-5.072c0.942,-4.932 12.766,-15.727 13.047,-16.287c0.307,-0.614 0.081,-1.168 0.081,-1.168l-0.001,0Zm-16.951,-23.106c0.61,0 7.647,3.325 7.647,3.325c0.776,3.823 1.108,5.707 0.277,5.375c-0.831,-0.332 -6.649,-0.332 -7.259,-1.053c-0.609,-0.72 -1.274,-7.647 -0.665,-7.647l0,0Zm-10.178,3.325c0,0 7.037,-3.325 7.647,-3.325c0.61,0 -0.055,6.926 -0.665,7.647c-0.61,0.72 -6.428,0.72 -7.259,1.053c-0.831,0.332 -0.499,-1.551 0.277,-5.375Zm-0.65,6.886c0.192,-1.33 7.911,-1.846 8.684,-1.073c0.773,0.773 0.292,6.227 -0.388,6.907c-0.68,0.68 -6.483,-0.031 -7.591,-0.419c-1.108,-0.388 -1.049,-3.03 -0.705,-5.415l0,0Zm14.263,28.632c-2.048,0.802 -3.919,0.006 -4.576,-0.337l0,-0.142c0,0 -0.046,0.029 -0.125,0.074c-0.08,-0.045 -0.125,-0.074 -0.125,-0.074l0,0.142c-0.657,0.344 -2.527,1.139 -4.576,0.337c-2.549,-0.997 -4.544,-21.389 -4.1,-21.832c0.443,-0.443 7.425,0.055 8.035,0.997c0.609,0.942 0.767,7.591 0.767,7.591c0,0 0.157,-6.649 0.767,-7.591c0.609,-0.942 7.591,-1.441 8.035,-0.997c0.443,0.443 -1.552,20.834 -4.1,21.832l-0.001,0Zm4.156,-23.217c-1.108,0.388 -6.911,1.099 -7.591,0.419c-0.68,-0.68 -1.161,-6.134 -0.388,-6.907c0.773,-0.773 8.493,-0.257 8.684,1.073c0.344,2.385 0.403,5.027 -0.705,5.415Z" style="fill:#fafef6;fill-rule:nonzero;stroke:#000;stroke-width:0.34px;"/><path d="M60.162,42.389c4.291,0 6.059,-3.376 6.907,-4.451c1.078,-1.367 1.484,-5.307 1.484,-12.769c0,-7.462 -6.033,-9.241 -8.428,-9.241c-2.37,0 -8.355,1.779 -8.355,9.241c0,7.462 0.406,11.402 1.484,12.769c0.848,1.075 2.616,4.451 6.907,4.451" style="fill:#fafef6;fill-rule:nonzero;stroke:#000;stroke-width:0.34px;"/></g></svg>