<?xml version="1.0" encoding="UTF-8" standalone="no"?><!DOCTYPE svg PUBLIC "-//W3C//DTD SVG 1.1//EN" "http://www.w3.org/Graphics/SVG/1.1/DTD/svg11.dtd"><svg width="100%" height="100%" viewBox="0 0 120 260" version="1.1" xmlns="http://www.w3.org/2000/svg" xmlns:xlink="http://www.w3.org/1999/xlink" xml:space="preserve" xmlns:serif="http://www.serif.com/" style="fill-rule:evenodd;clip-rule:evenodd;stroke-linecap:round;stroke-linejoin:round;"><g id="R_Muscle"><g id="Nogi"><g id="Łydki"><path d="M31.098,193.132c0.296,5.467 -0.739,17.584 -0.148,19.8c0.591,2.216 -0.148,9.161 0.591,8.866c0.739,-0.296 5.615,-5.467 5.689,-7.684c0.074,-2.216 2.364,-12.781 4.581,-17.51c2.216,-4.728 -3.99,-13.225 -5.246,-12.338c-1.256,0.887 -5.467,8.866 -5.467,8.866l0,0Z" style="fill-rule:nonzero;stroke:#fff;stroke-width:0.34px;"/><path d="M88.651,193.132c-0.296,5.467 0.739,17.584 0.148,19.8c-0.591,2.216 0.148,9.161 -0.591,8.866c-0.739,-0.296 -5.615,-5.467 -5.689,-7.684c-0.074,-2.216 -2.364,-12.781 -4.581,-17.51c-2.216,-4.729 3.99,-13.225 5.246,-12.338c1.256,0.887 5.467,8.866 5.467,8.866l0,0Z" style="fill-rule:nonzero;stroke:#fff;stroke-width:0.34px;"/></g></g></g></svg>