<?xml version="1.0" encoding="UTF-8" standalone="no"?><!DOCTYPE svg PUBLIC "-//W3C//DTD SVG 1.1//EN" "http://www.w3.org/Graphics/SVG/1.1/DTD/svg11.dtd"><svg width="100%" height="100%" viewBox="0 0 120 260" version="1.1" xmlns="http://www.w3.org/2000/svg" xmlns:xlink="http://www.w3.org/1999/xlink" xml:space="preserve" xmlns:serif="http://www.serif.com/" style="fill-rule:evenodd;clip-rule:evenodd;stroke-linecap:round;stroke-linejoin:round;"><g id="R_Muscle"><g id="Nogi"><g id="Achilles"><path d="M41.344,195.718c0,1.034 -5.517,15.589 -5.961,18.544c-0.443,2.955 0.369,7.979 -1.034,8.57c-1.404,0.591 -2.734,0.739 -2.512,-0.222c0.222,-0.96 0.887,-6.575 1.034,-10.122c0.148,-3.546 -1.773,-19.357 -1.773,-19.357l5.246,-5.246l3.472,3.103l1.528,4.728l0,-0Z" style="fill:#fff;fill-rule:nonzero;stroke:#000;stroke-width:0.34px;"/><path d="M78.406,195.718c0,1.034 5.517,15.589 5.961,18.544c0.443,2.955 -0.369,7.979 1.034,8.57c1.404,0.591 2.734,0.739 2.512,-0.222c-0.222,-0.96 -0.887,-6.575 -1.034,-10.122c-0.148,-3.546 1.773,-19.357 1.773,-19.357l-5.246,-5.246l-3.472,3.103l-1.528,4.728Z" style="fill:#fff;fill-rule:nonzero;stroke:#000;stroke-width:0.34px;"/><g id="Nie-wiem" serif:id="Nie wiem"><path d="M40.555,158.471c-2.512,5.256 -3.177,14.122 -2.216,16.486c0.96,2.364 2.057,2.364 4.205,-1.921c2.148,-4.285 4.956,-4.507 4.439,-9.605c-0.517,-5.098 -6.428,-4.961 -6.428,-4.961l0,0Z" style="fill:#fff;fill-rule:nonzero;stroke:#000;stroke-width:0.34px;"/><path d="M79.194,158.471c2.512,5.256 3.177,14.122 2.216,16.486c-0.96,2.364 -2.057,2.364 -4.205,-1.921c-2.148,-4.285 -4.956,-4.507 -4.439,-9.605c0.517,-5.098 6.428,-4.961 6.428,-4.961l0,0Z" style="fill:#fff;fill-rule:nonzero;stroke:#000;stroke-width:0.34px;"/></g></g></g></g></svg>