<?xml version="1.0" encoding="UTF-8" standalone="no"?><!DOCTYPE svg PUBLIC "-//W3C//DTD SVG 1.1//EN" "http://www.w3.org/Graphics/SVG/1.1/DTD/svg11.dtd"><svg width="100%" height="100%" viewBox="0 0 120 260" version="1.1" xmlns="http://www.w3.org/2000/svg" xmlns:xlink="http://www.w3.org/1999/xlink" xml:space="preserve" xmlns:serif="http://www.serif.com/" style="fill-rule:evenodd;clip-rule:evenodd;stroke-linecap:round;stroke-linejoin:round;"><g id="R_Muscle"><g id="Nogi"><g id="Łydki"><path d="M39.446,161.807c1.773,3.251 1.699,13.594 -0.074,19.948c-1.773,6.354 -3.399,10.491 -8.275,11.378c0,0 -0.591,-11.673 2.069,-16.697c2.66,-5.024 3.546,-7.388 3.546,-7.388l2.734,-7.24l0,-0Z" style="fill-rule:nonzero;stroke:#fff;stroke-width:0.34px;"/><path d="M45.135,165.279c-0.96,1.33 -4.359,9.309 -6.206,15.22c-1.847,5.91 -3.251,13.151 2.881,16.106c0,0 3.177,-3.62 3.399,-10.713c0.222,-7.093 0.295,-10.639 1.33,-11.821c1.034,-1.182 -1.404,-8.792 -1.404,-8.792l-0,0Z" style="fill-rule:nonzero;stroke:#fff;stroke-width:0.34px;"/><path d="M80.303,161.807c-1.773,3.251 -1.699,13.594 0.074,19.948c1.773,6.354 3.399,10.491 8.275,11.378c0,0 0.591,-11.673 -2.069,-16.697c-2.66,-5.024 -3.546,-7.388 -3.546,-7.388l-2.734,-7.24l0,-0Z" style="fill-rule:nonzero;stroke:#fff;stroke-width:0.34px;"/><path d="M74.614,165.279c0.96,1.33 4.359,9.309 6.206,15.219c1.847,5.91 3.251,13.151 -2.881,16.106c0,0 -3.177,-3.62 -3.399,-10.713c-0.222,-7.093 -0.296,-10.639 -1.33,-11.821c-1.034,-1.182 1.404,-8.792 1.404,-8.792l0,0Z" style="fill-rule:nonzero;stroke:#fff;stroke-width:0.34px;"/></g></g></g></svg>