<?xml version="1.0" encoding="UTF-8" standalone="no"?><!DOCTYPE svg PUBLIC "-//W3C//DTD SVG 1.1//EN" "http://www.w3.org/Graphics/SVG/1.1/DTD/svg11.dtd"><svg width="100%" height="100%" viewBox="0 0 120 260" version="1.1" xmlns="http://www.w3.org/2000/svg" xmlns:xlink="http://www.w3.org/1999/xlink" xml:space="preserve" xmlns:serif="http://www.serif.com/" style="fill-rule:evenodd;clip-rule:evenodd;stroke-linecap:round;stroke-linejoin:round;"><g id="R_Muscle"><g id="Nogi"><g id="Dwugłowy-uda" serif:id="Dwugłowy uda"><path d="M37.604,156.117c-0.555,-6.592 3.025,-23.272 7.457,-23.272c4.433,0 3.842,1.108 3.842,1.108c0,0 -3.325,7.758 -4.137,13.151c-0.813,5.393 -0.887,15.441 -8.053,21.943c0,0 1.339,-7.612 0.891,-12.93l0,0Z" style="fill-rule:nonzero;stroke:#fff;stroke-width:0.34px;"/><path d="M82.145,156.117c0.555,-6.592 -3.025,-23.272 -7.457,-23.272c-4.433,0 -3.842,1.108 -3.842,1.108c0,0 3.325,7.758 4.137,13.151c0.813,5.393 0.887,15.441 8.053,21.943c0,0 -1.339,-7.612 -0.891,-12.93l-0,0Z" style="fill-rule:nonzero;stroke:#fff;stroke-width:0.34px;"/><path d="M46.539,174.071c-1.921,-9.826 -4.542,-11.552 -3.01,-20.774c1.532,-9.222 4.635,-19.639 5.891,-20.452c1.256,-0.813 2.881,2.438 3.103,8.644c0.222,6.206 -2.586,23.125 -2.955,25.711c-0.369,2.586 -3.029,6.871 -3.029,6.871Z" style="fill-rule:nonzero;stroke:#fff;stroke-width:0.34px;"/><path d="M73.21,174.071c1.921,-9.826 4.542,-11.552 3.01,-20.774c-1.532,-9.222 -4.635,-19.639 -5.891,-20.452c-1.256,-0.813 -2.881,2.438 -3.103,8.644c-0.222,6.206 2.586,23.125 2.955,25.711c0.369,2.586 3.029,6.871 3.029,6.871Z" style="fill-rule:nonzero;stroke:#fff;stroke-width:0.34px;"/></g></g></g></svg>