<?xml version="1.0" encoding="UTF-8" standalone="no"?><!DOCTYPE svg PUBLIC "-//W3C//DTD SVG 1.1//EN" "http://www.w3.org/Graphics/SVG/1.1/DTD/svg11.dtd"><svg width="100%" height="100%" viewBox="0 0 120 260" version="1.1" xmlns="http://www.w3.org/2000/svg" xmlns:xlink="http://www.w3.org/1999/xlink" xml:space="preserve" xmlns:serif="http://www.serif.com/" style="fill-rule:evenodd;clip-rule:evenodd;stroke-linecap:round;stroke-linejoin:round;"><g id="R_Muscle"><g id="Nogi"><g id="Posladki"><path d="M45.191,101.76c0,0 -5.652,8.866 -3.99,15.958c1.662,7.093 14.684,-14.074 14.684,-14.074l-7.813,-3.602l-2.881,1.718Z" style="fill-rule:nonzero;stroke:#fff;stroke-width:0.34px;"/><path d="M74.558,101.76c0,0 5.652,8.866 3.99,15.958c-1.662,7.093 -14.684,-14.074 -14.684,-14.074l7.813,-3.602l2.881,1.718Z" style="fill-rule:nonzero;stroke:#fff;stroke-width:0.34px;"/><path d="M54.74,104.732c-5.541,1.885 -13.446,5.727 -13.52,16.07c-0.074,10.343 6.945,14.85 12.486,12.855c5.541,-1.995 6.945,-7.314 6.169,-21.426c-0.776,-14.111 -5.135,-7.5 -5.135,-7.5Z" style="fill-rule:nonzero;stroke:#fff;stroke-width:0.34px;"/><path d="M65.009,104.732c5.541,1.885 13.446,5.727 13.52,16.07c0.074,10.343 -6.945,14.85 -12.486,12.855c-5.541,-1.995 -6.945,-7.314 -6.169,-21.426c0.776,-14.111 5.135,-7.5 5.135,-7.5Z" style="fill-rule:nonzero;stroke:#fff;stroke-width:0.34px;"/></g></g></g></svg>