<?xml version="1.0" encoding="UTF-8" standalone="no"?><!DOCTYPE svg PUBLIC "-//W3C//DTD SVG 1.1//EN" "http://www.w3.org/Graphics/SVG/1.1/DTD/svg11.dtd"><svg width="100%" height="100%" viewBox="0 0 120 260" version="1.1" xmlns="http://www.w3.org/2000/svg" xmlns:xlink="http://www.w3.org/1999/xlink" xml:space="preserve" xmlns:serif="http://www.serif.com/" style="fill-rule:evenodd;clip-rule:evenodd;stroke-linecap:round;stroke-linejoin:round;"><g id="R_Muscle"><g id="Klatka"><g id="Przedramiona"><path d="M17.873,117.035c-0.222,-2.29 2.547,-6.945 5.448,-10.491c2.901,-3.546 7.703,-11.969 8.663,-14.702c0.96,-2.734 -0.813,-5.689 -0.813,-5.689c0,0 -3.99,-0.517 -3.916,2.438c0.074,2.955 -2.364,9.161 -4.359,12.043c-1.995,2.881 -7.24,11.969 -7.462,13.003c-0.222,1.034 -0.517,4.063 -0.296,4.063c0.221,0 2.734,-0.665 2.734,-0.665l-0,0Z" style="fill-rule:nonzero;stroke:#fff;stroke-width:0.34px;"/><path d="M101.876,117.035c0.222,-2.29 -2.547,-6.945 -5.448,-10.491c-2.901,-3.546 -7.703,-11.969 -8.663,-14.702c-0.96,-2.734 0.813,-5.689 0.813,-5.689c0,0 3.99,-0.517 3.916,2.438c-0.074,2.955 2.364,9.161 4.359,12.043c1.995,2.881 7.24,11.969 7.462,13.003c0.222,1.034 0.517,4.063 0.296,4.063c-0.221,0 -2.734,-0.665 -2.734,-0.665l0,0Z" style="fill-rule:nonzero;stroke:#fff;stroke-width:0.34px;"/><path d="M25.04,82.828c0,1.921 1.625,9.309 2.069,10.565c0.443,1.256 -3.325,8.644 -4.507,8.127c-1.182,-0.517 -0.517,-14.481 0.517,-15.737c1.034,-1.256 1.921,-2.955 1.921,-2.955Z" style="fill-rule:nonzero;stroke:#fff;stroke-width:0.34px;"/><path d="M94.71,82.828c0,1.921 -1.625,9.309 -2.069,10.565c-0.443,1.256 3.325,8.644 4.507,8.127c1.182,-0.517 0.517,-14.481 -0.517,-15.737c-1.034,-1.256 -1.921,-2.955 -1.921,-2.955Z" style="fill-rule:nonzero;stroke:#fff;stroke-width:0.34px;"/><path d="M15.509,116.961c-0.517,-3.99 5.615,-8.201 7.093,-15.441c1.478,-7.24 0.222,-13.89 0.222,-13.89l-6.206,15.958l-3.177,13.372l2.069,0Z" style="fill-rule:nonzero;stroke:#fff;stroke-width:0.34px;"/><path d="M104.24,116.961c0.517,-3.99 -5.615,-8.201 -7.093,-15.441c-1.478,-7.24 -0.222,-13.89 -0.222,-13.89l6.206,15.958l3.177,13.372l-2.069,0Z" style="fill-rule:nonzero;stroke:#fff;stroke-width:0.34px;"/><path d="M25.483,81.719c-3.029,2.143 -7.831,8.275 -8.053,13.594c-0.222,5.319 -4.728,17.14 -5.393,18.249c-0.665,1.108 2.438,4.063 2.143,2.734c-0.295,-1.33 1.773,-7.536 2.881,-9.752c1.108,-2.216 6.502,-21.721 8.422,-23.199c1.921,-1.478 0,-1.625 0,-1.625Z" style="fill-rule:nonzero;stroke:#fff;stroke-width:0.34px;"/><path d="M94.266,81.719c3.029,2.143 7.831,8.275 8.053,13.594c0.222,5.319 4.728,17.14 5.393,18.249c0.665,1.108 -2.438,4.063 -2.143,2.734c0.296,-1.33 -1.773,-7.536 -2.881,-9.752c-1.108,-2.216 -6.502,-21.721 -8.422,-23.199c-1.921,-1.478 0,-1.625 0,-1.625Z" style="fill-rule:nonzero;stroke:#fff;stroke-width:0.34px;"/></g></g></g></svg>