<?xml version="1.0" encoding="UTF-8" standalone="no"?><!DOCTYPE svg PUBLIC "-//W3C//DTD SVG 1.1//EN" "http://www.w3.org/Graphics/SVG/1.1/DTD/svg11.dtd"><svg width="100%" height="100%" viewBox="0 0 120 260" version="1.1" xmlns="http://www.w3.org/2000/svg" xmlns:xlink="http://www.w3.org/1999/xlink" xml:space="preserve" xmlns:serif="http://www.serif.com/" style="fill-rule:evenodd;clip-rule:evenodd;stroke-linecap:round;stroke-linejoin:round;"><g id="R_Muscle"><g id="Klatka"><g id="Podgrzebieniowy"><path d="M38.375,55.104c1.496,0.831 3.879,4.932 4.488,7.813c0.61,2.881 9.254,6.261 10.029,4.1c0.776,-2.161 -2.707,-16.346 -3.93,-16.734c-1.223,-0.388 -9.808,0.75 -10.144,2.66c-0.336,1.91 -0.443,2.161 -0.443,2.161Z" style="fill-rule:nonzero;stroke:#fff;stroke-width:0.34px;"/><path d="M81.374,55.104c-1.496,0.831 -3.879,4.932 -4.488,7.813c-0.61,2.881 -9.254,6.261 -10.029,4.1c-0.776,-2.161 2.707,-16.346 3.93,-16.734c1.223,-0.388 9.808,0.75 10.144,2.66c0.336,1.91 0.443,2.161 0.443,2.161Z" style="fill-rule:nonzero;stroke:#fff;stroke-width:0.34px;"/></g></g></g></svg>