<?xml version="1.0" encoding="UTF-8" standalone="no"?><!DOCTYPE svg PUBLIC "-//W3C//DTD SVG 1.1//EN" "http://www.w3.org/Graphics/SVG/1.1/DTD/svg11.dtd"><svg width="100%" height="100%" viewBox="0 0 120 260" version="1.1" xmlns="http://www.w3.org/2000/svg" xmlns:xlink="http://www.w3.org/1999/xlink" xml:space="preserve" xmlns:serif="http://www.serif.com/" style="fill-rule:evenodd;clip-rule:evenodd;stroke-linecap:round;stroke-linejoin:round;"><g id="R_Muscle"><g id="Klatka"><g id="Obłe"><path d="M36.048,56.323c1.995,-2.438 4.932,-1.718 6.04,0.887c1.108,2.604 1.662,7.259 0.776,7.259c-0.887,0 -5.35,0.689 -6.871,0c-1.521,-0.689 0.055,-8.145 0.055,-8.145l0,-0Z" style="fill-rule:nonzero;stroke:#fff;stroke-width:0.34px;"/><path d="M83.701,56.323c-1.995,-2.438 -4.932,-1.718 -6.04,0.887c-1.108,2.604 -1.662,7.259 -0.776,7.259c0.887,0 5.35,0.689 6.871,0c1.521,-0.689 -0.055,-8.145 -0.055,-8.145l-0,-0Z" style="fill-rule:nonzero;stroke:#fff;stroke-width:0.34px;"/><path d="M38.89,58.65c-0.936,-1.807 -0.847,7.758 1.591,10.805c2.438,3.047 11.248,-1.053 10.417,-2.272c-0.831,-1.219 -11.549,-7.647 -12.008,-8.533l0,0Z" style="fill-rule:nonzero;stroke:#fff;stroke-width:0.34px;"/><path d="M80.859,58.65c0.936,-1.807 0.847,7.758 -1.591,10.805c-2.438,3.048 -11.248,-1.053 -10.417,-2.272c0.831,-1.219 11.549,-7.647 12.008,-8.533l0,0Z" style="fill-rule:nonzero;stroke:#fff;stroke-width:0.34px;"/></g></g></g></svg>