<?xml version="1.0" encoding="UTF-8" standalone="no"?><!DOCTYPE svg PUBLIC "-//W3C//DTD SVG 1.1//EN" "http://www.w3.org/Graphics/SVG/1.1/DTD/svg11.dtd"><svg width="100%" height="100%" viewBox="0 0 120 260" version="1.1" xmlns="http://www.w3.org/2000/svg" xmlns:xlink="http://www.w3.org/1999/xlink" xml:space="preserve" xmlns:serif="http://www.serif.com/" style="fill-rule:evenodd;clip-rule:evenodd;stroke-linecap:round;stroke-linejoin:round;"><g id="R_Muscle"><g id="Klatka"><g id="Naramienny"><path d="M42.476,48.621c0,0 -8.755,0.443 -11.415,5.319c-2.66,4.876 -2.216,14.739 -2.216,14.739c0,0 5.504,-4.063 7.499,-7.203c1.995,-3.14 1.145,-4.285 2.032,-5.246c0.887,-0.96 7.141,-6.424 9.518,-4.597c2.377,1.827 0.05,-2.975 0.05,-2.975l-5.467,-0.037Z" style="fill-rule:nonzero;stroke:#fff;stroke-width:0.34px;"/><path d="M77.274,48.621c0,0 8.755,0.443 11.415,5.319c2.66,4.876 2.216,14.739 2.216,14.739c0,0 -5.504,-4.063 -7.499,-7.203c-1.995,-3.14 -1.145,-4.285 -2.032,-5.246c-0.887,-0.96 -7.141,-6.424 -9.518,-4.597c-2.377,1.827 -0.05,-2.975 -0.05,-2.975l5.467,-0.037Z" style="fill-rule:nonzero;stroke:#fff;stroke-width:0.34px;"/></g></g></g></svg>