<?xml version="1.0" encoding="UTF-8" standalone="no"?><!DOCTYPE svg PUBLIC "-//W3C//DTD SVG 1.1//EN" "http://www.w3.org/Graphics/SVG/1.1/DTD/svg11.dtd"><svg width="100%" height="100%" viewBox="0 0 120 260" version="1.1" xmlns="http://www.w3.org/2000/svg" xmlns:xlink="http://www.w3.org/1999/xlink" xml:space="preserve" xmlns:serif="http://www.serif.com/" style="fill-rule:evenodd;clip-rule:evenodd;stroke-linecap:round;stroke-linejoin:round;"><g id="R_Muscle"><g id="Klatka"><g id="Skośny-zewnętrzny" serif:id="Skośny zewnętrzny"><path d="M48.164,94.058c-1.478,0.887 -5.393,4.581 -6.28,9.087c-0.428,2.177 1.019,0.677 2.854,0.083c1.964,-0.636 4.341,-0.453 4.341,-0.453l-0.915,-8.718l0,0Z" style="fill-rule:nonzero;stroke:#fff;stroke-width:0.34px;"/><path d="M41.809,83.751c0,5.393 -0.663,21.832 -0.146,20.945c0.517,-0.887 2.881,-6.945 5.91,-9.678c3.029,-2.734 -5.765,-11.267 -5.765,-11.267l0,0Z" style="fill-rule:nonzero;stroke:#fff;stroke-width:0.34px;"/><path d="M71.585,94.058c1.478,0.887 5.393,4.581 6.28,9.087c0.428,2.177 -1.019,0.677 -2.854,0.083c-1.964,-0.636 -4.341,-0.453 -4.341,-0.453l0.915,-8.718l0,0Z" style="fill-rule:nonzero;stroke:#fff;stroke-width:0.34px;"/><path d="M77.94,83.751c0,5.393 0.663,21.832 0.146,20.945c-0.517,-0.887 -2.881,-6.945 -5.91,-9.678c-3.029,-2.734 5.765,-11.267 5.765,-11.267l-0,0Z" style="fill-rule:nonzero;stroke:#fff;stroke-width:0.34px;"/></g></g></g></svg>