<?xml version="1.0" encoding="UTF-8" standalone="no"?><!DOCTYPE svg PUBLIC "-//W3C//DTD SVG 1.1//EN" "http://www.w3.org/Graphics/SVG/1.1/DTD/svg11.dtd"><svg width="100%" height="100%" viewBox="0 0 120 260" version="1.1" xmlns="http://www.w3.org/2000/svg" xmlns:xlink="http://www.w3.org/1999/xlink" xml:space="preserve" xmlns:serif="http://www.serif.com/" style="fill-rule:evenodd;clip-rule:evenodd;stroke-linecap:round;stroke-linejoin:round;"><g id="R_Muscle"><g id="Klatka"><g id="Najszerszy-grzbietu" serif:id="Najszerszy grzbietu"><path d="M41.531,84.97c0.955,2.208 2.939,7.905 4.786,9.9c1.847,1.995 1.515,7.185 2.327,7.998c0.813,0.813 11.08,-21.735 10.454,-23.734c-0.625,-1.999 -6.502,-13.372 -7.019,-12.855c-0.517,0.517 -10.803,2.035 -13.048,-0.017c0,0 1.317,15.975 2.499,18.709l0,0Z" style="fill-rule:nonzero;stroke:#fff;stroke-width:0.34px;"/><path d="M78.218,84.97c-0.955,2.208 -2.939,7.905 -4.786,9.9c-1.847,1.995 -1.515,7.185 -2.327,7.998c-0.813,0.813 -11.08,-21.735 -10.454,-23.734c0.625,-1.999 6.502,-13.372 7.019,-12.855c0.517,0.517 10.803,2.034 13.048,-0.017c0,0 -1.317,15.975 -2.499,18.709l-0,0Z" style="fill-rule:nonzero;stroke:#fff;stroke-width:0.34px;"/></g></g></g></svg>