<?xml version="1.0" encoding="UTF-8" standalone="no"?><!DOCTYPE svg PUBLIC "-//W3C//DTD SVG 1.1//EN" "http://www.w3.org/Graphics/SVG/1.1/DTD/svg11.dtd"><svg width="100%" height="100%" viewBox="0 0 120 260" version="1.1" xmlns="http://www.w3.org/2000/svg" xmlns:xlink="http://www.w3.org/1999/xlink" xml:space="preserve" xmlns:serif="http://www.serif.com/" style="fill-rule:evenodd;clip-rule:evenodd;stroke-linecap:round;stroke-linejoin:round;"><g id="R_Muscle"><g id="Góra"><g id="Czworoboczny"><path d="M55.49,33.467c0,0 0.728,6.436 -2.08,8.874c-2.808,2.438 -10.934,6.28 -10.934,6.28c0,0 5.098,1.921 5.541,3.251c0.443,1.33 2.512,12.781 3.768,14.85c1.256,2.069 8.09,16.106 8.09,16.106l0,-53.638l-3.583,0.887l-0.802,3.39Z" style="fill-rule:nonzero;stroke:#fff;stroke-width:0.34px;"/><path d="M64.259,33.467c0,0 -0.728,6.436 2.08,8.874c2.807,2.438 10.934,6.28 10.934,6.28c0,0 -5.098,1.921 -5.541,3.251c-0.443,1.33 -2.512,12.781 -3.768,14.85c-1.256,2.069 -8.09,16.106 -8.09,16.106l0,-53.638l3.583,0.887l0.802,3.39Z" style="fill-rule:nonzero;stroke:#fff;stroke-width:0.34px;"/></g></g></g></svg>