<?xml version="1.0" encoding="UTF-8" standalone="no"?><!DOCTYPE svg PUBLIC "-//W3C//DTD SVG 1.1//EN" "http://www.w3.org/Graphics/SVG/1.1/DTD/svg11.dtd"><svg width="100%" height="100%" viewBox="0 0 120 260" version="1.1" xmlns="http://www.w3.org/2000/svg" xmlns:xlink="http://www.w3.org/1999/xlink" xml:space="preserve" xmlns:serif="http://www.serif.com/" style="fill-rule:evenodd;clip-rule:evenodd;stroke-linecap:round;stroke-linejoin:round;"><g id="R_Bones"><path d="M12.247,113.24c-1.031,1.532 -1.134,2.83 -1.65,3.33c-0.516,0.499 -1.639,1.179 -2.337,2.164c-0.41,0.578 -2.287,3.278 -3.016,4.77c-0.325,0.666 0.748,1.374 0.954,1.274c0.618,-0.299 1.581,-0.816 1.581,-0.816c0,0 -1.56,4.365 -1.607,5.886c-0.009,0.283 0.804,0.459 0.851,0.375c0.773,-1.399 2.177,-4.495 2.177,-4.495c0,0 -1.094,5.195 -1.262,7.805c-0.011,0.172 0.743,0.425 0.803,0.287c1.014,-2.323 2.956,-7.326 2.956,-7.326c0,0 -0.034,5.728 -0.215,7.9c-0.016,0.196 1.104,0.297 1.134,0.165c0.593,-2.637 1.349,-7.932 1.349,-7.932c0,0 0.516,5.511 1.288,6.443c0.078,0.094 0.785,-0.063 0.817,-0.166c0.403,-1.273 0.483,-5.324 0.601,-6.21c0.387,-2.884 1.968,-5.661 1.005,-10.323c-0.962,-4.662 -5.431,-3.13 -5.431,-3.13l0,-0Z" style="fill:#fafef6;fill-rule:nonzero;stroke:#000;stroke-width:0.34px;"/><path d="M29.676,216.903c-2.604,3.602 -2.881,5.042 -2.106,6.206c0.776,1.164 1.939,3.491 2.383,2.937c0.443,-0.554 -0.277,-9.143 -0.277,-9.143Z" style="fill:#fafef6;fill-rule:nonzero;stroke:#000;stroke-width:0.34px;"/><path d="M30.764,212.009c-0.887,2.826 -1.532,3.454 -1.643,4.895c-0.111,1.441 0.554,6.04 0.222,7.148c-0.332,1.108 -0.499,4.433 2.493,4.655c2.992,0.222 4.544,-0.665 4.876,-1.884c0.332,-1.219 0.388,-2.826 0.997,-3.768c0.609,-0.942 1.884,-2.493 0.942,-3.99c-0.942,-1.496 0.111,-1.607 0.111,-2.327c0,-0.72 -1.201,-2.955 -1.201,-4.322c-3.916,4.488 -6.798,-0.406 -6.798,-0.406l0.001,0Z" style="fill:#fafef6;fill-rule:nonzero;stroke:#000;stroke-width:0.34px;"/><path d="M45.191,103.09c-2.227,1.596 -3.762,11.635 -3.972,14.185c-0.96,11.692 4.193,13.853 6.244,15.515c2.05,1.662 -1.718,-0.277 -3.269,0.61c-1.552,0.887 -3.865,5.223 -3.865,5.833c0,0.609 -1.676,-12.15 -0.9,-15.474c-2.383,4.876 -2.353,14.464 -2.353,14.464c0,0 -0.473,-13.411 1.577,-19.507c2.05,-6.095 3.011,-14.019 3.011,-14.019c0,0 4.008,-2.438 3.528,-1.607l0,0Z" style="fill:#fafef6;fill-rule:nonzero;stroke:#000;stroke-width:0.34px;"/><path d="M29.177,74.848c-1.521,2.282 -1.773,8.866 -2.143,10.269c-0.369,1.404 -2.006,3.549 -1.034,5.689c0.971,2.139 -0.183,5.686 1.81,2.881c2.66,-3.743 1.071,-6.667 2.253,-9.946c1.182,-3.279 2.62,-7.194 1.827,-8.229c-0.793,-1.034 -1.384,-2.66 -2.714,-0.665l0,0Z" style="fill:#fafef6;fill-rule:nonzero;stroke:#000;stroke-width:0.34px;"/><path d="M59.875,112.232c0,-1.164 -3.245,-8.09 -9.229,-9.531c-5.334,-1.284 -8.265,0.682 -9.088,1.872c-0.1,0.145 -0.024,0.724 0.092,0.691c0.385,-0.111 2.777,-1.813 4.982,-2.079c4.014,-0.484 10.085,1.511 13.243,9.047l0,0Z" style="fill:#fafef6;fill-rule:nonzero;stroke:#000;stroke-width:0.34px;"/><path d="M42.476,48.621c0,0 4.711,0.776 6.603,0.332c1.893,-0.443 3.851,2.327 3.481,6.206c-0.369,3.879 -2.049,7.734 -2.049,7.734c0,0 -2.199,-8.953 -2.753,-10.726c-0.554,-1.773 -3.214,-0.776 -4.987,-0.332c-1.773,0.443 -3.127,-1.607 -3.329,-2.791c0.983,-0.414 3.033,-0.423 3.033,-0.423Z" style="fill:#fafef6;fill-rule:nonzero;stroke:#000;stroke-width:0.34px;"/><path d="M107.502,113.24c1.031,1.532 1.134,2.83 1.65,3.33c0.515,0.5 1.639,1.179 2.337,2.164c0.41,0.578 2.287,3.278 3.016,4.77c0.325,0.666 -0.748,1.374 -0.954,1.274c-0.618,-0.299 -1.581,-0.816 -1.581,-0.816c0,0 1.56,4.365 1.607,5.886c0.009,0.283 -0.804,0.459 -0.851,0.375c-0.773,-1.399 -2.177,-4.495 -2.177,-4.495c0,0 1.094,5.195 1.262,7.805c0.011,0.172 -0.743,0.425 -0.803,0.287c-1.014,-2.323 -2.956,-7.326 -2.956,-7.326c0,0 0.034,5.728 0.215,7.9c0.016,0.196 -1.104,0.297 -1.134,0.165c-0.593,-2.637 -1.349,-7.932 -1.349,-7.932c0,0 -0.516,5.511 -1.288,6.443c-0.078,0.094 -0.785,-0.063 -0.817,-0.166c-0.403,-1.273 -0.483,-5.324 -0.601,-6.21c-0.387,-2.884 -1.968,-5.661 -1.005,-10.323c0.962,-4.662 5.431,-3.13 5.431,-3.13l-0,-0Z" style="fill:#fafef6;fill-rule:nonzero;stroke:#000;stroke-width:0.34px;"/><path d="M90.073,216.903c2.604,3.602 2.881,5.042 2.106,6.206c-0.776,1.164 -1.939,3.491 -2.383,2.937c-0.443,-0.554 0.277,-9.143 0.277,-9.143Z" style="fill:#fafef6;fill-rule:nonzero;stroke:#000;stroke-width:0.34px;"/><path d="M88.985,212.009c0.887,2.826 1.532,3.454 1.643,4.895c0.111,1.441 -0.554,6.04 -0.222,7.148c0.332,1.108 0.499,4.433 -2.493,4.654c-2.992,0.222 -4.544,-0.665 -4.876,-1.884c-0.332,-1.219 -0.388,-2.826 -0.997,-3.768c-0.609,-0.942 -1.884,-2.493 -0.942,-3.99c0.942,-1.496 -0.111,-1.607 -0.111,-2.327c0,-0.72 1.201,-2.955 1.201,-4.322c3.916,4.488 6.798,-0.406 6.798,-0.406l-0.001,0Z" style="fill:#fafef6;fill-rule:nonzero;stroke:#000;stroke-width:0.34px;"/><path d="M74.558,103.09c2.227,1.596 3.762,11.635 3.972,14.185c0.96,11.692 -4.193,13.853 -6.244,15.515c-2.05,1.662 1.718,-0.277 3.269,0.61c1.552,0.887 3.865,5.223 3.865,5.833c0,0.609 1.676,-12.15 0.9,-15.474c2.383,4.876 2.353,14.464 2.353,14.464c0,0 0.473,-13.411 -1.577,-19.507c-2.05,-6.095 -3.011,-14.019 -3.011,-14.019c0,0 -4.008,-2.438 -3.528,-1.607l0,0Z" style="fill:#fafef6;fill-rule:nonzero;stroke:#000;stroke-width:0.34px;"/><path d="M90.572,74.848c1.521,2.282 1.773,8.866 2.143,10.269c0.369,1.404 2.006,3.549 1.034,5.689c-0.971,2.139 0.183,5.686 -1.81,2.881c-2.66,-3.743 -1.071,-6.667 -2.253,-9.946c-1.182,-3.279 -2.62,-7.194 -1.827,-8.229c0.793,-1.034 1.384,-2.66 2.714,-0.665l-0,0Z" style="fill:#fafef6;fill-rule:nonzero;stroke:#000;stroke-width:0.34px;"/><path d="M52.56,33.604c0,0 -1.773,-1.57 -1.995,-5.56c-0.222,-3.99 2.327,1.958 2.327,1.958l-0.332,3.602l-0,0Z" style="fill:#fafef6;fill-rule:nonzero;stroke:#000;stroke-width:0.34px;"/><path d="M67.189,33.604c0,0 1.773,-1.57 1.995,-5.56c0.222,-3.99 -2.327,1.958 -2.327,1.958l0.332,3.602l0,0Z" style="fill:#fafef6;fill-rule:nonzero;stroke:#000;stroke-width:0.34px;"/><path d="M59.875,112.232c-1.367,-6.132 -10.824,-10.122 -10.824,-10.122c0.296,-3.916 8.57,-22.681 9.161,-23.79c0.591,-1.108 0.665,-9.974 0.96,-14.481c0.296,-4.507 -3.676,-14.555 -3.897,-17.048c-0.222,-2.493 2.161,-5.486 2.66,-7.37c0.499,-1.884 0.831,-10.196 0.388,-7.813c-0.443,2.383 -5.763,1.995 -5.763,1.995c-3.214,-14.906 1.995,-17.676 7.314,-17.676c5.32,0 10.528,2.771 7.314,17.676c0,0 -5.319,0.388 -5.763,-1.995c-0.443,-2.383 -0.111,5.929 0.388,7.813c0.499,1.884 2.881,4.876 2.66,7.37c-0.222,2.494 -4.193,12.541 -3.897,17.048c0.296,4.507 0.369,13.372 0.96,14.481c0.591,1.108 8.939,20.157 9.235,24.073c0,0 -9.53,3.707 -10.897,9.839l0,-0Z" style="fill:#fafef6;fill-rule:nonzero;stroke:#000;stroke-width:0.34px;"/><path d="M59.875,112.232c0,-1.164 3.245,-8.09 9.229,-9.531c5.334,-1.284 8.265,0.682 9.088,1.872c0.1,0.145 0.024,0.724 -0.092,0.691c-0.385,-0.111 -2.777,-1.813 -4.982,-2.079c-4.014,-0.484 -10.085,1.511 -13.243,9.047l0,0Z" style="fill:#fafef6;fill-rule:nonzero;stroke:#000;stroke-width:0.34px;"/><path d="M77.274,48.621c0,0 -4.711,0.776 -6.603,0.332c-1.893,-0.443 -3.851,2.327 -3.481,6.206c0.369,3.879 2.049,7.734 2.049,7.734c0,0 2.199,-8.953 2.753,-10.726c0.554,-1.773 3.214,-0.776 4.987,-0.332c1.773,0.443 3.127,-1.607 3.329,-2.791c-0.983,-0.414 -3.033,-0.423 -3.033,-0.423Z" style="fill:#fafef6;fill-rule:nonzero;stroke:#000;stroke-width:0.34px;"/></g></svg>